<?xml version="1.0" standalone="no"?>
<!DOCTYPE svg PUBLIC "-//W3C//DTD SVG 1.1//EN" "http://www.w3.org/Graphics/SVG/1.1/DTD/svg11.dtd" >
<svg xmlns="http://www.w3.org/2000/svg">
<metadata>
Created by FontForge 20120731 at Mon Jul 24 09:18:16 2017
 By admin
</metadata>
<defs>
<font id="iconfont" horiz-adv-x="1024" >
  <font-face 
    font-family="iconfont"
    font-weight="500"
    font-stretch="normal"
    units-per-em="1024"
    panose-1="2 0 6 3 0 0 0 0 0 0"
    ascent="896"
    descent="-128"
    x-height="792"
    bbox="-4 -212 1068 900"
    underline-thickness="0"
    underline-position="0"
    unicode-range="U+0078-E922"
  />
<missing-glyph 
 />
    <glyph glyph-name=".notdef" 
 />
    <glyph glyph-name=".notdef" 
 />
    <glyph glyph-name=".null" horiz-adv-x="0" 
 />
    <glyph glyph-name="nonmarkingreturn" horiz-adv-x="341" 
 />
    <glyph glyph-name="x" unicode="x" horiz-adv-x="1001" 
d="M281 543q-27 -1 -53 -1h-83q-18 0 -36.5 -6t-32.5 -18.5t-23 -32t-9 -45.5v-76h912v41q0 16 -0.5 30t-0.5 18q0 13 -5 29t-17 29.5t-31.5 22.5t-49.5 9h-133v-97h-438v97zM955 310v-52q0 -23 0.5 -52t0.5 -58t-10.5 -47.5t-26 -30t-33 -16t-31.5 -4.5q-14 -1 -29.5 -0.5
t-29.5 0.5h-32l-45 128h-439l-44 -128h-29h-34q-20 0 -45 1q-25 0 -41 9.5t-25.5 23t-13.5 29.5t-4 30v167h911zM163 247q-12 0 -21 -8.5t-9 -21.5t9 -21.5t21 -8.5q13 0 22 8.5t9 21.5t-9 21.5t-22 8.5zM316 123q-8 -26 -14 -48q-5 -19 -10.5 -37t-7.5 -25t-3 -15t1 -14.5
t9.5 -10.5t21.5 -4h37h67h81h80h64h36q23 0 34 12t2 38q-5 13 -9.5 30.5t-9.5 34.5q-5 19 -11 39h-368zM336 498v228q0 11 2.5 23t10 21.5t20.5 15.5t34 6h188q31 0 51.5 -14.5t20.5 -52.5v-227h-327z" />
    <glyph glyph-name="zhengque" unicode="&#xe627;" 
d="M970 582l-59 57l-561 -561l-237 235l-59 -58l295 -294z" />
    <glyph glyph-name="attachment" unicode="&#xe62a;" 
d="M851 662v0q-75 74 -181 74t-181 -74l-319 -319q-5 -5 -5 -12t5 -12l27 -26q5 -5 12 -5t12 5l306 305q55 56 135 59.5t129 -46.5l17 -17q48 -50 37 -134.5t-68 -141.5l-257 -258v1l-90 -91q-45 -44 -103 -49.5t-95 31.5l-13 13q-37 38 -30 93.5t52 100.5l297 297
q32 26 60.5 30.5t53.5 -17.5l9 -9q49 -49 -31 -129l-194 -194q-2 -1 -3 -2q-6 -6 -6 -14t6 -14l18 -18q5 -5 12.5 -5t13.5 6l221 221q43 42 46.5 99t-34.5 95l-13 13q-37 38 -95 35t-101 -45l-13 -14q-3 -2 -5 -5l-318 -317q-56 -56 -58 -133t50 -130l19 -18q43 -44 106 -50
t117 27q38 17 67 47l385 385q74 74 74 180.5t-74 181.5z" />
    <glyph glyph-name="icon" unicode="&#xe6cc;" 
d="M211 634l635 -635l-33 -33l-635 635zM846 601l-635 -635l-33 33l635 635z" />
    <glyph glyph-name="kmd" unicode="&#xe605;" 
d="M406 687q64 44 139 39q48 -3 73 -35q10 -11 11.5 -26t-6.5 -27q-11 -18 -52 -44q-5 2 -17 8q-8 27 -20 40q-13 12 -32.5 13t-34.5 -8q-26 -13 -48 -54q-12 -22 -21.5 -51t-13.5 -47.5t-11.5 -56.5t-10.5 -51h158q82 4 111 11q2 -3 6.5 -8.5t6.5 -8.5q-23 -51 -57 -60
q-13 -3 -27 -4.5t-35 -2t-28 -0.5h-74.5h-75.5q-12 -61 -34 -172t-28 -141q-14 -70 -15 -99q-4 -32 8 -54q-1 -2 -2 -7t-3 -8t-6 -4q-47 -13 -69 -12q-20 3 -29 17q-11 16 -8 45q2 31 23 141q3 15 25.5 125.5t33.5 168.5q-55 -3 -94 -29q-1 1 -18 12q4 20 6.5 29t10 23.5
t18.5 22.5q9 6 22 9t21.5 4t25.5 1.5t22 1.5q2 8 6.5 30.5t7 32.5t7 29.5t8.5 32t9.5 28.5t12.5 30q31 72 98 116zM867 241q11 11 27 12t28 -10q10 -12 8.5 -27.5t-12.5 -26.5q-56 -53 -122 -126q71 -80 128 -173q7 -11 4 -25.5t-14 -22.5q-10 -7 -21.5 -6t-20.5 8
q-4 3 -7.5 7t-6.5 9.5t-5 8.5q-36 57 -104 138q-50 -59 -109 -148q-14 -19 -32 -17q-13 -1 -23.5 9t-10.5 23q-1 14 13 34q45 71 109 150q5 5 2 7q-16 18 -35 38t-42.5 44t-36.5 37q-11 10 -12.5 25t7.5 26q11 12 28 12t28 -12q108 -112 113 -117q68 74 119 123z" />
    <glyph glyph-name="tupian" unicode="&#xe64e;" 
d="M873 692h-724q-35 0 -59.5 -24.5t-24.5 -59.5v-613q0 -35 24.5 -59.5t59.5 -24.5h724q35 0 59.5 24.5t24.5 59.5v613q0 35 -24.5 59.5t-59.5 24.5v0zM149 636h724q12 0 20 -8.5t8 -19.5v-328q-105 86 -216 86q-31 0 -62.5 -10t-67.5 -32.5t-59 -39.5t-64 -49
q-42 -33 -65 -50t-55 -34t-54 -17q-70 0 -137 65v409q0 11 8 19.5t20 8.5v0zM873 -33h-724q-12 0 -20 8t-8 20v132q68 -48 137 -48q24 0 48.5 8t54.5 27.5t49.5 33.5t55.5 43q38 30 58.5 45t52.5 35.5t58 30t50 9.5q34 0 68.5 -11.5t58.5 -25.5t47 -32t30.5 -26t11.5 -12v0
v-209q0 -12 -8 -20t-20 -8v0zM344 301q46 0 78.5 33t32.5 79t-32.5 78.5t-79 32.5t-79 -32.5t-32.5 -78.5t32.5 -79t79.5 -33v0zM344 469q23 0 39.5 -16.5t16.5 -39.5t-16.5 -39.5t-39.5 -16.5t-39.5 16.5t-16.5 39.5t16.5 39.5t39.5 16.5v0zM344 469z" />
    <glyph glyph-name="tianjia" unicode="&#xe748;" 
d="M675 329h-127v127q0 15 -10.5 25.5t-25.5 10.5t-26 -10.5t-11 -25.5v-127h-127q-15 0 -25.5 -11t-10.5 -26t10.5 -25.5t25.5 -10.5h127v-127q0 -15 11 -26t26 -11t25.5 11t10.5 26v127h127q15 0 25.5 10.5t10.5 25.5t-10.5 26t-25.5 11v0zM511 747q-92 0 -176 -36
t-145 -97t-97 -145t-36 -176.5t36 -176.5t97 -144.5t145 -96.5t176.5 -36t176.5 36t144.5 96.5t96.5 144.5t36 176.5t-36 176.5t-96.5 145t-144.5 97t-177 36v0zM511 -105q-107 0 -198.5 53.5t-145 145t-53.5 199t53.5 199t145 145t199 53.5t199 -53.5t145 -145t53.5 -199
t-53.5 -199t-145 -145t-199.5 -53.5v0zM511 -105z" />
    <glyph glyph-name="add" unicode="&#xe600;" 
d="M960 262h-410v-410h-76v410h-410v76h410v410h76v-410h410v-76z" />
    <glyph glyph-name="xiala" unicode="&#xe601;" 
d="M511 -106v0q111 0 204.5 54.5t148 148t54.5 204t-54.5 204.5t-148 148.5t-204 54.5t-204.5 -54.5t-148.5 -148.5t-54.5 -204.5t54.5 -204t148.5 -148t204 -54.5v0zM511 -145v0q-91 0 -173.5 35.5t-142 95t-94.5 142t-35 173.5t35 173.5t94.5 142t142 95t173.5 35.5
t173.5 -35.5t142 -95t95 -142t35.5 -173.5t-35.5 -173.5t-95 -142t-142 -95t-173.5 -35.5v0zM270 385l227 -247l14 -15l14 15l228 247l-29 26l-227 -247h28l-227 247l-28 -26v0z" />
    <glyph glyph-name="iconfonttime" unicode="&#xe61e;" 
d="M828 591q-63 63 -144.5 97t-171 34t-171 -34t-145 -97t-97 -144.5t-33.5 -171.5t33.5 -171.5t97 -144.5t145 -97t171 -34t171 34t144.5 97q86 86 116.5 201t0 230t-116.5 201v0zM787 0q-55 -55 -126 -84.5t-149 -29.5t-148.5 29.5t-125.5 84.5t-84.5 126t-29.5 149
t29.5 149t84.5 126t126 84.5t148.5 29.5t148.5 -29.5t126 -84.5q75 -75 101.5 -175t0 -200t-101.5 -175v0v0zM705 166l-154 89v243q0 16 -11 27t-26.5 11t-26 -11t-10.5 -27v-260q0 -16 28 -32q2 -4 17 -12l153 -93q14 -8 27 -4t21 18q7 13 1.5 28t-19.5 23v0zM705 166z" />
    <glyph glyph-name="shengchan1" unicode="&#xe659;" 
d="M839 616q-9 -22 -36 -19q-14 2 -24 6q-4 2 -8 -1q-19 -15 -38 -17q-11 -2 -21 2q-3 2 -4 0q-6 -17 -27 -27q-5 -3 -5 -9q1 -12 -4 -20q-2 -3 -5 -4q-7 -4 -8 4q-6 37 1 63q4 16 14 25q2 2 2 5q4 25 17 40q21 23 56 21q9 0 13 6q26 39 72 28q7 -2 12 1q22 10 42 12
q43 2 61 -38q3 -8 10 -34q5 -19 -14 -34q-6 -5 -5 -13q2 -23 -15 -34q-8 -6 -20 -7q-17 -3 -33 1q-15 4 -24 15t-8 29zM839 616q0 2 1 3h0.5h0.5q0 -2 -1 -2h-1v-1zM808 199q0 5 -5 7q-13 6 -43 21t-46 22q-5 3 -5 9v115.5v129.5q0 6 -6 6h-36t-35 -1q-6 0 -6 6v27.5t1 26.5
q0 5 -5 5h-38q-7 0 -7 -6v-244v-7l-5 3q-255 124 -386 187q-4 3 -9 3q-69 -1 -105 0q-6 0 -6 -6q1 -304 0 -630q0 -6 6 -6h730q6 0 6 6q-1 161 0 326zM210 -69h-56q-5 0 -5 5v123v123q0 6 6 6h54q6 0 6 -6v-246q0 -5 -5 -5zM314 -64q0 -5 -5 -5h-56q-5 0 -5 5v124v122
q0 6 5 6h56q5 0 5 -5v-247zM408 -69h-56q-6 0 -6 6v122v123q0 6 6 6h56q5 0 5 -4q-1 -126 0 -248q0 -5 -5 -5z" />
    <glyph glyph-name="yan" unicode="&#xe66e;" 
d="M508 137q63 0 108 46.5t45 112t-45 112t-108.5 46.5t-108.5 -46.5t-45 -112t45 -112t109 -46.5v0zM508 417q48 0 82 -36t34 -86t-34 -85.5t-82 -35.5t-82.5 35.5t-34.5 85.5t34.5 86t82.5 36v0zM67 293q56 -141 177 -226t268 -85t268 85t177 226l2 7l-2 7
q-56 141 -177 226t-268 85t-268 -85t-177 -226l-2 -7l2 -7v0zM512 581q134 0 244.5 -76.5t162.5 -204.5q-52 -128 -162.5 -204.5t-244.5 -76.5t-244.5 76.5t-162.5 204.5q52 128 162.5 204.5t244.5 76.5v0zM512 581z" />
    <glyph glyph-name="shuaxin" unicode="&#xe64f;" 
d="M598 -136q100 21 175 90t108.5 167t14.5 202q-17 93 -83 171q-9 10 -14.5 15.5t-14.5 11t-18 4t-19 -8.5q-8 -6 -11 -12t-1 -14t3.5 -11t8.5 -14t8 -11q2 -4 6.5 -9.5t6.5 -7.5q71 -98 64.5 -212t-88.5 -199q-81 -85 -196 -97.5t-213 52.5t-130.5 175t14.5 221
q34 81 115.5 133.5t154.5 41.5q1 -8 -2 -14t-9.5 -13t-8.5 -10q-3 -4 -14 -17t-15.5 -20t-3 -18.5t13.5 -21.5q10 -8 18.5 -9.5t16.5 3.5t13.5 10.5t13 15t12.5 13.5q2 2 18 22q8 10 22 27q17 21 24.5 29.5t15.5 22.5t10 18t0 15.5t-5.5 15l-16 16t-22 20t-32.5 24.5
q-13 9 -20 15q-7 5 -21 20t-23.5 23t-24.5 8.5t-29 -14.5q-15 -14 -11 -27t14.5 -21t23.5 -20.5t16 -24.5q-86 -29 -93 -32q-68 -26 -122.5 -76.5t-85.5 -113t-41 -134t11 -139.5q30 -100 101.5 -172t168 -101.5t196.5 -7.5z" />
    <glyph glyph-name="renminbi" unicode="&#xe622;" 
d="M512 896q-104 0 -199 -40.5t-163.5 -109.5t-109 -163.5t-40.5 -198.5t40.5 -199t109 -163.5t163.5 -109t199 -40.5t199 40.5t163.5 109t109 163.5t40.5 199t-40.5 198.5t-109 163.5t-163.5 109.5t-199 40.5v0zM512 -45q-116 0 -215 57.5t-156.5 156.5t-57.5 215t57.5 215
t156.5 156.5t215 57.5t215 -57.5t156.5 -156.5t57.5 -215t-57.5 -215t-156.5 -156.5t-215 -57.5v0zM655 665l-91 -169q-37 -68 -45 -90h-2q-24 54 -136 259h-85l159 -275h-131v-60h154v-84h-154v-61h154v-122h76v122h148v61h-148v84h148v60h-127l161 275h-81v0zM655 665z
" />
    <glyph glyph-name="dengluhou" unicode="&#xe6e9;" 
d="M791 498q0 -116 -82 -198t-197.5 -82t-197.5 82t-82 198t82 197.5t197.5 81.5t197.5 -81.5t82 -197.5zM81 -175h861q0 117 -57.5 216t-157 157t-216.5 58t-216 -58t-156.5 -157t-57.5 -216z" />
    <glyph glyph-name="fuzhi" unicode="&#xe69e;" 
d="M70 742h697v-81h70v151h-837v-809h122v70h-52v669zM187 597v-809h837v809h-837zM954 -142h-697v669h697v-669z" />
    <glyph glyph-name="kaoqin" unicode="&#xe662;" 
d="M878 739h-70v89q0 14 -9.5 24t-23.5 10h-3q-13 0 -23 -10t-10 -24v-89h-452v89q0 14 -10 24t-24 10h-2q-14 0 -24 -10t-10 -24v-89h-73q-46 0 -78.5 -32.5t-32.5 -78.5v-614q0 -46 32.5 -78.5t78.5 -32.5h734q46 0 79 32.5t33 78.5v614q0 46 -33 78.5t-79 32.5zM783 315
l-306 -306q-5 -4 -11 -8q-10 -5 -22 -5q-18 0 -31 12l-165 166q-13 13 -13 31.5t12.5 31.5t31 13t31.5 -13l135 -135l275 276q13 13 31.5 13t31.5 -13t13 -31.5t-13 -31.5zM910 494h-797v154h797v-154z" />
    <glyph glyph-name="rili" unicode="&#xe642;" 
d="M693.5 597q16.5 0 29 11.5t12.5 28.5v183q0 17 -12.5 28.5t-29 11.5t-28.5 -11.5t-12 -28.5v-183q0 -17 12 -28.5t28.5 -11.5zM613 759h-204v-61h204v61v0zM851 759h-75v-61h78q18 0 30.5 -12.5t12.5 -29.5v-141h-772v141q0 17 12.5 29.5t30.5 12.5h79v61h-76
q-44 0 -75 -31.5t-31 -75.5v-620q0 -44 30.5 -75t74.5 -31h681q44 0 75.5 31t31.5 75v620q0 44 -31.5 75.5t-75.5 31.5zM897 29q0 -17 -12.5 -29.5t-30.5 -12.5h-686q-18 0 -30.5 12.5t-12.5 29.5v425h772v-425zM287 271q25 0 43 18t18 43.5t-18 43.5t-43 18t-43 -18
t-18 -43.5t18 -43.5t43 -18zM510.5 271q25.5 0 43.5 18t18 43.5t-18 43.5t-43.5 18t-43.5 -18t-18 -43.5t18 -43.5t43.5 -18zM285.5 47q25.5 0 43.5 18t18 43.5t-18 43.5t-43.5 18t-43 -18t-17.5 -43.5t17.5 -43.5t43 -18zM510.5 47q25.5 0 43.5 18t18 43.5t-18 43.5
t-43.5 18t-43.5 -18t-18 -43.5t18 -43.5t43.5 -18zM734 271q25 0 43 18t18 43.5t-18 43.5t-43 18t-43 -18t-18 -43.5t18 -43.5t43 -18zM327.5 597q16.5 0 29 11.5t12.5 28.5v183q0 17 -12.5 28.5t-29 11.5t-28.5 -11.5t-12 -28.5v-183q0 -17 12 -28.5t28.5 -11.5z" />
    <glyph glyph-name="xiangshangjiantou" unicode="&#xe65d;" 
d="M966 227l-435 432q-7 7 -17.5 7t-17.5 -7l-442 -432q-7 -7 -7 -17.5t7.5 -17.5t17.5 -7t18 7l425 416l416 -416q7 -7 17.5 -7t18 7t7.5 17.5t-8 17.5z" />
    <glyph glyph-name="xiangxiajiantou" unicode="&#xe65e;" 
d="M966 573q-7 7 -17.5 7t-17.5 -7l-416 -416l-425 416q-8 7 -18 7t-17.5 -7t-7.5 -17.5t7 -17.5l442 -432q7 -8 17.5 -8t17.5 8l435 432q15 20 0 35z" />
    <glyph glyph-name="suyaniconchanpinleibufenzuodaohangbufen87" unicode="&#xe730;" 
d="M485 -64h-341q-7 0 -11.5 5t-4.5 11v864q0 7 4.5 11.5t11.5 4.5h736q7 0 11.5 -4.5t4.5 -11.5v-576l64 -28v604q0 33 -23.5 56.5t-56.5 23.5h-736q-33 0 -56.5 -23.5t-23.5 -56.5v-864q0 -33 23.5 -56.5t56.5 -23.5h341v64v0zM860 246q0 41 -29.5 70.5t-70.5 29.5
t-70.5 -29.5t-29.5 -70.5t29.5 -70.5t70.5 -29.5t70.5 29.5t29.5 70.5v0zM894 112v0h-19l-104 -211l39 195l-50 50l-50 -50l39 -195l-104 211h-20v0q-19 0 -32 -5.5t-20 -13t-10 -23t-3.5 -26t-0.5 -32.5v-140h401v140q0 22 -0.5 32.5t-4 26t-10 23t-19.5 13t-32 5.5v0z
M229 728h562v-58h-562v58v0zM229 577h453v-63h-453v63v0zM229 415h369v-59h-369v59v0z" />
    <glyph glyph-name="diqiu-copy" unicode="&#xe61c;" 
d="M505 461v0q-1 1 -1 2zM674 276v0v0v0zM678 275h-1q-2 0 -3 1q-1 -4 4 -1zM513.5 827q-89.5 0 -171.5 -35t-141 -94t-94 -141t-35 -171.5t35 -171t94 -141t141 -94t171.5 -34.5t171 34.5t141 94t94 141t34.5 171t-34.5 171.5t-94 141t-141 94t-171 35zM795 654
q-26 0 -38 -8q-13 -10 -14 -10q-3 -1 -9 -1t-9 -1q-8 -3 -13.5 -15.5t-11.5 -21.5t-17.5 -6.5t-27.5 27.5q-1 2 -4.5 6t-4.5 6t-2 6.5t2 7.5q-2 -1 -5 -0.5t-4 -0.5q2 6 10.5 9t9.5 5q1 3 1 5.5t-4 4t-6.5 2.5t-7 1.5t-5.5 0.5q3 6 9.5 2.5t9.5 -3.5q8 2 -4 11q-3 1 -4 2
q-1 0 -4 -1q-12 -2 -13 0t5 7q-33 21 -54 34q-1 -4 2.5 -8.5t8.5 -6.5t12.5 -5.5t8.5 -3.5q-1 -5 -6 -9t-9 -2q-3 1 -5.5 6t-7.5 5q-4 -8 5.5 -12t9.5 -8q1 -3 0 -5t-2.5 -2t-4.5 1t-4 1l-2 1.5t-3.5 2t-2.5 -2.5q0 -3 5.5 -5t6.5 -5q-13 -1 -31 11q-12 8 -35 8l15 6
q10 8 12 12q1 7 -4 10q-3 2 -4 3q-2 1 -7 5t-9 6.5t-7 2.5q-10 2 -14.5 -1.5t-4.5 -9.5t-3 -12.5t-10 -7.5h1h-1v0q-16 1 -18 -1q-1 -1 -2.5 -6t-2.5 -7q-3 -3 -9.5 -5.5t-8.5 -3.5q-16 -11 -21 -19q-1 -8 -1 -12t6.5 -8.5t11.5 -7t13.5 -5t11.5 -4.5q2 -1 9 -3t13 -4t7 -5
q2 -2 1 -9t5 -8q8 -4 13 1q4 1 0.5 5.5t-3.5 6.5q0 6 -0.5 7t2.5 2t5 2q8 6 8.5 9.5t-3.5 13.5q-8 25 -3 28q6 3 10.5 2.5t12.5 -3.5t10 -3q3 0 6 -3t5.5 -7t3.5 -5q9 -9 13 -8q4 0 5.5 4.5t2.5 5.5q9 4 12 1.5t7 -12.5q0 -2 1 -3q4 -10 16 -20q19 -17 18 -21q-1 -6 -24 -13
q-10 -3 -21 -1t-21.5 -2t-11.5 -16q1 0 9.5 5t13 6.5t9.5 -0.5q2 -2 0 -6.5t-1 -5.5q2 -7 8 -7t11 2q0 -1 -1 -1q8 4 9.5 5.5t5.5 8.5q1 1 2 4t2 5.5t3 3.5q6 6 12 -1q1 -2 2 -3q11 -14 9 -19q-24 5 -40 -5q-20 -13 -22 -14q-11 -3 -15 1q1 1 7 4.5t8 5.5q-2 2 -7 0.5
t-6.5 -2t-6.5 -4.5t-6 -4q-4 -2 -9 -8.5t-7 -8.5l-6 -3t-5.5 -4t-3 -6.5t-3.5 -5.5q-1 -1 -4 -2t-4 -3q-2 -2 -0.5 -6t1.5 -6q-1 -3 -9 -8.5t-9 -6.5l2 2q-1 -1 -6 -5.5t-7 -7.5q5 -28 5 -29q-4 -11 -15 10l-2 2q-5 9 -13.5 10.5t-23 -2t-16.5 -3.5q-17 -2 -28 -19t-1 -33
q9 -17 29 -13q5 1 12 9.5t12 8.5t7 -2t1 -5t-2.5 -6t-4 -7t-2.5 -5q0 -3 -0.5 -4t2 -2.5t3 -1.5t4.5 -1q2 0 8.5 0.5t7.5 -1.5q1 0 2 -3l1.5 -4.5t2.5 -0.5q-5 -5 -4.5 -13t6.5 -12q3 -4 13 -3t13 0q10 -1 10.5 -1t4 4t8.5 7q3 4 10 1.5t8 -2.5t5.5 2.5t9.5 1.5q2 0 6.5 -3
t8.5 -4q2 0 5 0.5t4 0.5q12 -1 35 -18q4 -3 7.5 -4t8.5 -2t8 -2q7 -2 14 -9t7 -13q0 -1 -3.5 -6.5t-4.5 -7.5q2 -1 5 -0.5t8 1t6 1.5q-6 -5 -10 -5q0 -1 8 -6q1 5 4 7t5 1t6 -3.5t6 -3.5q5 -1 14.5 -2.5t12.5 -2.5q21 -5 28 -12q8 -10 -3 -26q-2 -3 -9.5 -10t-9.5 -13
q-2 -5 -2 -14t-1 -13q-1 -6 -2 -8t-4.5 -4t-6 -4.5t-3.5 -5t-6 -4.5q-3 -1 -8.5 -2.5t-9 -4t-6.5 -7.5v2q-1 -2 -3 -7.5t-2 -6.5q-3 -5 -13 -16q-1 -1 -6.5 -8t-10.5 -13t-5 -5q-1 1 -9 0t-8 1q1 -2 4 -4q-3 -15 -10 -19.5t-23 -4.5q1 -4 -1 -6t-5.5 -3.5t-5 -3.5t-3 -8.5
t-2.5 -7.5q0 -1 -4.5 -7.5t-4.5 -7.5q0 -2 5 -7q-21 -5 -44 -6q5 6 -5 7q1 3 5 8t5 8q1 2 1 4v3q2 6 0 14q-2 5 -1.5 12t1.5 9t3 8.5t4 11.5q3 9 5 30.5t3 27.5q4 26 1 36q-2 4 -6.5 8.5t-11 8.5t-8.5 6q-7 7 -23 31q-9 14 -11 17q-5 7 -2 9t3 4q1 2 1 10t1 12q2 5 7.5 12
t7.5 12q5 16 -8 20q-2 1 -7 -0.5t-7 -0.5q-7 1 -18 9q-4 3 -8.5 9.5t-8.5 9.5q-4 2 -9.5 2.5t-7.5 1.5q-4 1 -9.5 6.5t-7.5 6.5q-3 2 -10.5 0.5t-11.5 -1.5q-4 1 -14.5 6.5t-11.5 6.5q-21 9 -28 28q-3 6 -21 28q-2 2 -5 7t-5 7t-5.5 4.5t-8.5 3.5q-1 0 1 -5t3 -7q2 -4 5 -8
t6.5 -9t5.5 -7q6 -9 4.5 -10.5t-7.5 7.5q-28 38 -30 40q0 1 -2 6t-5 8q-3 2 -9 5.5t-8 5.5q-23 21 -19 62q0 1 1 9t1 12q-2 8 -9 16q-1 1 -2.5 3t-2.5 3.5l-1 1.5q-9 15 -14 19q-8 8 -22 18q63 79 157 117q1 -4 4 -9q1 -2 2.5 -3.5t4 -2.5t3.5 -1t4.5 -1t5.5 -1
q-1 -13 -24 -10q-7 2 -16.5 1.5t-15.5 -6.5q15 -9 17 -7.5t1 5.5q19 1 31 -1q1 0 6.5 -1.5t8.5 -2t6 0.5q1 1 2.5 5.5t2.5 5.5q-1 0 -4 0.5t-5 0.5q3 3 6 4t4.5 0.5t6 -3t5.5 -3.5q-8 -5 -4 -11q3 -5 10 3q8 10 -12 21q8 10 13 10t12 -10q1 3 2.5 4t3 1t5 -0.5t5.5 -0.5v2
q-2 0 -5 1t-5 1q3 4 4.5 8.5t2.5 6t6 3.5q3 1 11.5 1.5t15.5 1.5t8 5q-4 -1 -16 -2.5t-20.5 -3.5t-15.5 -6q-1 -1 -6 -4.5t-7 -4t-7 1.5q-5 5 -0.5 11.5t10.5 10.5h-1q40 8 81 8q26 0 53 -3q-3 -2 -3.5 -5t-1.5 -4q-7 -5 -34 -15q3 0 16.5 -2.5t22 -1t11.5 9.5q-4 0 -13 2
q12 7 25 12q121 -24 207 -115h-1zM866 500q1 0 2 1l2 2q0 1 1 3.5t2 3.5t3.5 2.5t2.5 2.5l2 2q10 -27 16 -56q-1 0 -1 -0.5v-0.5q-2 -1 -8 -1q-5 0 -11.5 5.5t-9.5 10.5q-1 2 0 12q0 1 -1 6.5t0 6.5zM872 297q-15 13 -22 24q-3 4 -3.5 8.5t0.5 11.5t1 9t-1.5 15t1.5 14
q1 2 3.5 4.5l3.5 3.5q1 3 2.5 8t4.5 8q2 3 7.5 6.5t7.5 5.5q1 0 9 14q5 10 13 16q5 -30 5 -59q0 -51 -13 -101q-8 2 -19 12z" />
    <glyph glyph-name="renshiguanli01" unicode="&#xe64d;" 
d="M515 247q11 33 48 38l60 9q-4 3 -7 5q-11 10 -16 21t-6 21q0 11 2 21q1 8 4 15q2 5 7 10t9 8q6 3 12 9q6 5 10 13q5 10 8 18q4 11 6 21q7 3 14 8q5 5 10 14q4 9 6 23q1 11 0 18q-2 7 -5 13q-2 6 -7 8q0 29 -4 56q-3 23 -12 50t-26 49q-8 10 -20 19q-11 8 -28 17
q-16 7 -35 12q-18 5 -38 5q-15 0 -33 -3t-34 -10q-16 -6 -32.5 -18.5t-29.5 -31.5q-14 -19 -21 -45q-8 -25 -10 -47q-4 -25 -3 -52q-6 -8 -8 -15q-3 -7 -4 -16q-1 -10 2 -21q4 -12 8 -18q5 -7 10 -10q4 -4 9 -5q4 -12 7 -22q4 -9 8 -17q4 -9 10 -14q10 -8 21 -18
q9 -9 10 -26q1 -12 1 -20t-3 -17q-3 -8 -11 -16.5t-23 -17.5q-17 -12 -42 -18q-14 -4 -100 -33q-23 -8 -39.5 -21t-20.5 -39q-6 -35 -3 -53q3 -28 11 -34q6 -5 36 -11q18 -4 52 -9.5t103.5 -12t135.5 -6.5q28 0 55 1q-2 9 0 19l12 68l-49 48q-28 27 -17 60v0zM857 238
l-73 11q-8 1 -16.5 7.5t-12.5 13.5l-33 66q-3 8 -9 8q-5 0 -9 -8l-32 -66q-4 -7 -12.5 -13.5t-16.5 -7.5l-73 -11q-8 -1 -10 -6t5 -11l52 -51q15 -14 11 -34l-12 -73q-2 -12 7 -12q4 0 7 2l65 34q8 4 18.5 4t17.5 -4l65 -34q4 -2 7 -2q10 0 8 12l-13 73q-3 20 12 34l52 51
q6 6 4.5 11t-9.5 6v0zM857 238z" />
    <glyph glyph-name="jishiqi" unicode="&#xe635;" 
d="M816 657q6 5 12 9l10 8q6 4 10 7q10 9 22.5 7.5t20.5 -10t9 -22t-7 -21.5l-8.5 -8.5l-10.5 -10.5q-6 -5 -13 -11q13 -16 26 -42.5t24.5 -58.5t18.5 -67.5t7 -70.5q0 -85 -32.5 -160t-88 -130.5t-130 -88t-160 -32.5t-160.5 32.5t-130.5 88t-88 130.5t-32.5 160.5
t32.5 160t88 130t130.5 88t160 32.5q88 0 163 -33t127 -87zM527 703q-70 0 -131.5 -26.5t-107 -72.5t-72 -107.5t-26.5 -131.5t26.5 -131.5t72 -107.5t107 -72t131.5 -26t131.5 26t107.5 72t72.5 107.5t26.5 131.5t-26.5 131.5t-72.5 107.5t-107.5 72.5t-131.5 26.5z
M595 839q0 -14 -7 -26t-17 -20t-22 -12t-22 -4q-11 0 -23 4t-22.5 12t-17 19.5t-6.5 26.5v57h137v-57zM546 355q-9 -6 -18 -5.5t-15 8.5q-6 7 -5 16t9 17l208 176q7 5 17 5t16 -8t5 -17t-10 -17zM558 645q0 -12 -9 -21.5t-22 -9.5t-22 9.5t-9 21.5q0 13 9 22t22 9t22 -9
t9 -22zM294 366q0 -13 -9 -22t-22 -9t-22 9t-9 22t9 22t22 9t22 -9t9 -22zM557 94.5q0 -13.5 -9 -22.5t-22 -9t-22 9t-9 22.5t9 22t22 8.5t22 -8.5t9 -22zM820 366q0 -13 -9 -22t-21 -9q-14 0 -23 9t-9 22t9 22t23 9q12 0 21 -9t9 -22z" />
    <glyph glyph-name="xiangmuguanli" unicode="&#xe6ac;" 
d="M64 682l448 -199l448 150l-448 199zM960 583v-497l-398 -150v498zM64 633v-547l448 -150v498z" />
    <glyph glyph-name="wodejixiao-copy" unicode="&#xe606;" 
d="M61 319h193v-322h-193v322zM576 513h194v-516h-194v516zM319 706h193v-709h-193v709zM834 900h194v-903h-194v903zM-4 -67h1032v-65h-1032v65z" />
    <glyph glyph-name="huanyuan" unicode="&#xe61d;" 
d="M1009 -120q-13 -8 -37 -8h-294q-33 0 -41 29q-5 16 4.5 31.5t27.5 17.5h11h201l7 -2q0 1 0.5 2t0.5 2q-3 3 -6 5q-165 166 -271 272q-17 16 -15 34q3 24 25 33t40 -7l8 -8l268 -268l1 -1l2 -1v-1l1 -1l1 -1l1 -1l1 -1l1 8v204q0 34 29 42q17 4 31.5 -5.5t17.5 -27.5v-11
v-291q0 -25 -7 -37q-8 -2 -8 -8v0zM7 -113q-7 13 -7 37v294q0 32 28 41q17 5 32 -4.5t18 -27.5v-11v-201l-2 -7q1 0 2 -0.5t2 -0.5l5 6q166 165 271 271q21 20 44 13q20 -7 25.5 -27t-8.5 -35q-2 -3 -8 -9l-88 -88l-92.5 -92.5l-87.5 -87.5l-7 -7q7 -1 8 -1h204q33 0 41 -29
q5 -17 -4.5 -31.5t-27.5 -17.5h-11h-291q-26 0 -38 7l-1 1l-1 2l-1 1l-1 1l-1 1l-1 1l-2 1v0zM1016 881q8 -13 8 -37v-294q0 -33 -29 -41q-17 -5 -32 4.5t-17 26.5q-1 6 -1 12v200q0 1 2 8q-1 0 -2 0.5l-1 0.5l-5 -5l-272 -272q-17 -17 -36 -14q-23 3 -31 24q-9 22 7 40
q1 1 7 8l269 268l7 7h-9h-203q-34 0 -42 29q-4 17 5.5 32t26.5 17h12h291q25 0 37 -7q4 -2 8 -7v0zM15 889q13 7 37 7h294q33 0 41 -28q5 -17 -4.5 -32t-26.5 -18h-12h-201l-7 2q0 -1 -0.5 -2t-0.5 -2q3 -3 6 -5q165 -166 271 -271q20 -21 12 -44q-6 -20 -26 -25.5t-36 8.5
q-3 2 -8 8l-268 268l-1 1l-2 2l-1 1h-1v1l-1 1l-1 1q-1 -4 -1 -9v-203q0 -33 -28 -41q-17 -5 -32 5t-17 28q-1 3 -1 11v291q0 25 8 37q3 4 7 8v0z" />
    <glyph glyph-name="caiwu" unicode="&#xe607;" 
d="M959 42q0 -19 -6 -35t-18 -28.5t-28 -19.5t-34 -7h-716q-18 0 -35 7t-30 19.5t-20 28.5t-7 35v491q0 38 26 64t63 26h716q37 0 63 -26t26 -64v-134h-223q-38 0 -64 -25.5t-26 -62.5q1 -26 11 -46q8 -16 26 -30t53 -14h223v-179v0zM825 668h-447q53 28 100 54
q42 21 82.5 43t62.5 34q35 18 62 16.5t46 -9.5q21 -10 37 -28zM691 311q0 19 13 31.5t31.5 12.5t31.5 -12.5t13 -31.5t-13 -32.5t-31.5 -13.5t-31.5 13.5t-13 32.5v0zM691 311z" />
    <glyph glyph-name="icon-users-bold" unicode="&#xe65a;" 
d="M441 226q18 10 27 21t10.5 18.5t-2.5 16.5t-7 12l-10 10q-8 10 -13.5 21.5t-7 19.5t-4.5 25q-27 16 -34.5 40.5t-2 42t13.5 19.5q1 57 12 101t30.5 70.5t37.5 41t42 25.5q-40 122 -165 122q-39 0 -70.5 -12.5t-49.5 -33t-32 -45t-18 -48.5t-8 -45t-2 -33t0 -13t-5 -4
t-7.5 -15.5t1.5 -33.5q3 -13 11.5 -23t14.5 -13l6 -3q9 -45 32 -63q17 -13 24 -26t7 -33t-7 -31.5t-29 -28.5q-16 -12 -55 -23.5t-59 -19.5q-37 -16 -47.5 -38.5t-10.5 -72.5q0 -27 4 -44t8 -21l3 -4q55 -20 213 -29q-1 36 6.5 60.5t24 37.5t32.5 19.5t42.5 15t43.5 17.5z
M960 38q0 19 -1.5 33.5t-6 25.5t-7.5 18t-10 13t-9.5 8.5t-11 7t-9.5 5.5q-10 5 -57 19t-63 24q-35 21 -35 60v7.5v7t1 6t3 7.5t5.5 8t8.5 10.5t13 12.5q15 14 22.5 30t8.5 24t2 8q3 0 7 2.5t11 12t12 25.5q3 11 3 19.5t-2 14.5t-5 10.5t-5 6.5l-2 2q-2 1 0 13t-2 33
t-8.5 45t-18 48.5t-31.5 44.5t-49.5 33t-71 13t-70.5 -13t-49.5 -33t-31.5 -44.5t-18.5 -49t-8 -44.5t-2.5 -33l1 -13q-3 -1 -5.5 -4t-7.5 -16t1 -33q4 -14 12 -24t15 -13l6 -3q8 -44 32 -62q17 -13 24 -26t7 -33t-7.5 -31.5t-28.5 -28.5q-16 -12 -55.5 -23.5t-58.5 -19.5
q-37 -16 -47.5 -38.5t-10.5 -72.5q0 -27 4 -44.5t6.5 -20.5t4.5 -4v0q34 -13 114.5 -21t119 -9.5t63.5 -2.5v0q65 0 133.5 8.5t104.5 16.5l36 8q25 6 25 69z" />
    <glyph glyph-name="hongg" unicode="&#xe62f;" 
d="M0 -128h1024v1024zM654 -28l-173 170l34 34l136 -79l271 281l34 -34z" />
    <glyph glyph-name="xiaoshou" unicode="&#xe692;" 
d="M835 794h-204q-61 0 -82.5 -9t-65.5 -53l-347 -346q-15 -16 -22.5 -26t-12 -25.5t4.5 -33t30 -39.5l254 -254q22 -21 39.5 -30t33 -4.5t25.5 12t25 22.5l347 347q38 38 50 63.5t12 84.5v239q0 18 -6.5 28.5t-20 15.5t-26.5 6.5t-34 1.5zM719 504q-36 0 -61.5 25.5
t-25.5 61.5t25.5 61.5t61.5 25.5v0q36 0 61.5 -25.5t25.5 -61.5t-25.5 -61.5t-61.5 -25.5v0z" />
    <glyph glyph-name="xitongguanli" unicode="&#xe6ee;" 
d="M860 127l-180 177q18 38 18 80q0 78 -54.5 132.5t-131.5 54.5q-26 0 -50 -7l80 -79q24 -25 22.5 -61.5t-28 -63.5t-63.5 -28.5t-61 22.5l-80 80q-7 -24 -7 -49q0 -78 54.5 -132.5t132.5 -54.5q42 0 79 18l179 -178q17 -17 42 -16t44 20q18 18 19 43t-15 42zM811 55
q-13 0 -22.5 9t-9.5 22t9.5 22t22.5 9t22.5 -9t9.5 -22t-9.5 -22t-22.5 -9zM903 467h-19h-42v0q-13 2 -24 9h-1q-25 17 -25 47q0 8 3 17q3 10 9 17l10 10l21 21l12 12q14 18 14 40.5t-14 40.5l-37 37q-18 14 -40.5 14.5t-40.5 -13.5l-13 -12l-30 -30v0q-26 -21 -57 -8
q-10 5 -17 12q-14 14 -16 33v61q-2 22 -18.5 38t-38.5 18h-52q-22 -2 -38.5 -18t-19.5 -38v-61l-0.5 -1.5t-0.5 -2.5v-1l-1 -4v-1q-1 0 -1 -1q0 -2 -1 -3q0 -1 -2 -5v0q-5 -10 -14 -17q-15 -13 -36 -13q-19 0 -34 12l-10 10l-21 20l-12 13q-18 14 -40.5 14t-40.5 -15
l-37 -36q-14 -18 -14.5 -40.5t13.5 -40.5l13 -13l30 -30l0.5 -1l0.5 -1q1 0 1 -1t0.5 -1t1 -1t0.5 -2l0.5 -0.5l0.5 -0.5q0 -1 1 -2l1 -1v-2q1 0 1.5 -1.5l0.5 -1.5v-2t0.5 -2.5t0.5 -2.5q1 -2 1 -5q4 -26 -16 -46q-13 -14 -33 -16h-60q-23 -3 -38.5 -19t-18.5 -38v-53
q2 -22 18 -38t38 -19h18l43 -1l5 -1h1q3 -1 4 -1q17 -5 28 -20t11 -33q0 -20 -12 -35l-9 -9l-22 -21l-12 -13q-14 -17 -14 -40t14 -40l37 -37q18 -14 40.5 -14.5t40.5 13.5l13 12l30 30l0.5 0.5l1.5 1.5l2 2h2l1 1t1.5 1t1.5 0.5t2 0.5l1 1l5 2l1.5 0.5t2.5 0.5h1l4 1h1h4
q25 1 42 -16q14 -13 16 -33v-13v-48q3 -22 19 -38t38 -19h53q22 3 38 18.5t19 37.5v18l1 31v12q1 15 11 28l2 2l0.5 1l0.5 1q5 5 11 10q2 0 4 1l1 1h1q1 0 2 0.5l1 0.5l-50 50q-32 -9 -68 -9q-102 0 -173 71.5t-71 172.5q0 102 72 173.5t173 71.5q102 0 173 -72t71 -173
q0 -34 -10 -67l51 -49q3 7 11 16q7 7 18 11q8 4 15 4h61q22 3 38 19t18 39v52q-2 23 -17.5 39t-37.5 19v0z" />
    <glyph glyph-name="kehuguanli" unicode="&#xe647;" 
d="M724 201q-3 18 -23 35.5t-49.5 30t-50 19.5t-39.5 12v43q55 27 69 86q28 3 31 28q0 1 1 8q10 61 -7 76q-9 7 -22 5v34q0 53 -37 90t-89.5 37t-89.5 -37t-37 -90v-34q-13 2 -21 -5q-18 -15 -8 -76q1 -7 1 -8q3 -25 32 -28q13 -59 68 -86v-43q-19 -5 -39.5 -12t-50 -19.5
t-49.5 -29.5t-23 -34q-8 -24 0 -61l1 -5l4 -2q11 -5 30 -12.5t73.5 -19.5t108 -12t108 12t73.5 19.5t30 12.5l4 2l1 5q9 40 0 59zM910 279q-2 13 -16.5 25t-35.5 21t-35.5 14t-28.5 8v31q39 19 49 62q20 2 22 19q1 2 1 6q7 44 -5 55q-6 4 -16 3v25q0 37 -26.5 63.5
t-63.5 26.5q-32 0 -56.5 -20t-30.5 -50q29 -32 29 -82q0 -40 -21 -70q6 -10 18 -21t22 -17v-31q-61 -16 -93 -38q101 -32 145 -108q80 2 138 31l3 1l1 3q2 12 2 22.5t-1 15.5zM102 279q2 13 16.5 25t35.5 21t35.5 14t27.5 8v31q-39 19 -48 62q-21 2 -23 19q0 2 -1 6
q-7 44 6 55q6 4 15 3v25q0 37 26.5 63.5t63.5 26.5q32 0 56.5 -20t31.5 -50q-30 -32 -30 -82q0 -40 21 -70q-6 -10 -17.5 -21t-22.5 -17v-31q62 -16 93 -38q-101 -32 -145 -108q-80 2 -138 31l-3 1v3q-3 12 -3 22.5t1 15.5t2 5z" />
    <glyph glyph-name="fanhui" unicode="&#xe603;" 
d="M533 -9l-393 393l393 393q9 9 9 22.5t-9.5 23t-23 9.5t-22.5 -9l-412 -412q-11 -11 -9 -26q-2 -16 9 -28l412 -412q9 -9 22.5 -9t23 9.5t9.5 23t-9 22.5z" />
    <glyph glyph-name="gengduo" unicode="&#xe604;" 
d="M493 -9l393 393l-393 393q-10 9 -10 22.5t9.5 23t23 9.5t22.5 -9l412 -412q11 -11 9 -26q2 -16 -9 -28l-412 -412q-9 -9 -22.5 -9t-23 9.5t-9.5 23t10 22.5z" />
    <glyph glyph-name="riqishijian" unicode="&#xe6c8;" 
d="M584 738v29q0 9 5.5 14.5t14.5 5.5t15 -5.5t6 -14.5v-29h163q43 0 73 -29.5t30 -72.5v-74q0 -9 -5.5 -14.5t-15 -5.5t-15 5.5t-5.5 14.5v74q0 26 -17.5 43.5t-44.5 17.5h-163v-37q0 -9 -6 -14.5t-15 -5.5t-14.5 5.5t-5.5 14.5v37h-267v-37q0 -9 -5.5 -14.5t-14.5 -5.5
t-15 5.5t-6 14.5v37h-143q-26 0 -43.5 -17.5t-17.5 -43.5v-119h399q9 0 15 -5.5t6 -15t-6 -15t-15 -5.5h-399v-393q0 -26 17.5 -43.5t43.5 -17.5h338q9 0 15 -6t6 -15t-6 -14.5t-15 -5.5h-338q-43 0 -72.5 29.5t-29.5 72.5v553q0 43 29.5 72.5t72.5 29.5h143v29q0 9 6 14.5
t15 5.5t14.5 -5.5t5.5 -14.5v-29h267zM958 112q-4 -8 -12 -10.5t-16 2t-10.5 12.5t2.5 16q47 86 20 180t-113 140q-86 47 -179.5 20t-139.5 -113q-47 -85 -20 -179t112 -140q62 -34 131.5 -28.5t124.5 46.5q6 5 15 3.5t13.5 -7.5t3.5 -15t-7 -13q-65 -50 -147 -55.5
t-154 34.5q-66 36 -104 100.5t-39 135t34 141.5q27 50 71 84t94.5 48.5t106 9t105.5 -33.5q101 -58 132.5 -168.5t-24.5 -209.5zM727 431v-184l168 -37q8 -2 13 -9.5t3.5 -15t-9.5 -13t-15 -3.5l-201 45v217q0 9 5.5 15t15 6t15 -6t5.5 -15zM209 337q52 12 80 49h24v-258
h-43v197q-23 -17 -61 -23v35z" />
    <glyph glyph-name="gongzuoguanli" unicode="&#xe67e;" 
d="M239 -694zM751 667h-255v0q-10 0 -17 6.5t-7 16t7 16.5t17 7v0h255q9 0 15.5 -7t6.5 -16.5t-6.5 -16t-15.5 -6.5zM955 189l1 72q-48 10 -49 13q-1 5 -3 10q3 5 11 13t15 14l7 6l-54 72q-34 -29 -43 -33q-6 2 -13 4q-2 1 -6.5 12.5t-7.5 23.5l-3 11l-72 1q-8 -45 -20 -48
q-6 -1 -12 -4q-3 2 -14 10t-20 16l-9 7l-53 -72q26 -27 28 -36q-1 -5 -3 -9l-44 -11v-72q38 -7 45 -14q3 -6 5 -12q-4 -5 -12 -12.5t-14 -11.5l-6 -5l55 -72q44 28 51 30q5 -3 11 -5q2 -1 5 -12t4.5 -21t1.5 -11h72q2 41 7 43q8 2 16 5q2 -1 11 -8.5t16 -14.5l7 -7l71 72
q-26 18 -33 28q3 6 5 13q1 3 12.5 7t22.5 6zM772.5 135q-37.5 0 -64 26.5t-26.5 64t26.5 64.5t64 27t64 -27t26.5 -64.5t-26.5 -64t-64 -26.5zM542 225q0 96 67.5 164t163.5 68q18 0 35 -3v109q0 19 -13.5 32.5t-32.5 13.5v0h-312l-91 116l-2 -1v1h-242q-20 0 -33.5 -14
t-13.5 -33v-555q0 -19 13.5 -32.5t33.5 -13.5h481q-54 64 -54 148z" />
    <glyph glyph-name="hangzheng" unicode="&#xe608;" 
d="M483 -64h-5h-238q-63 0 -95 53q-12 21 -14 46q-1 4 -1 10v282q1 56 45 89q27 20 65 20h76q5 0 6 -4q40 -125 160 -491l1 -5v0zM510.5 835q81.5 0 139 -57.5t57.5 -139.5q0 -81 -57.5 -138.5t-138.5 -58t-139 57.5t-58 139t57.5 139t139 58zM511 35q-15 44 -16 46
q-62 190 -79 242q-2 6 3 10q35 30 88 74q4 3 7 0q40 -34 90 -75q3 -3 2 -7q-24 -71 -94 -287zM891 186v141q0 29 -12 52q-29 53 -88 56q-6 2 -43 1.5t-44 -0.5q-3 0 -4 -4q-4 -10 -16 -48q-102 -313 -144 -443q-2 -5 2 -5h130.5h110.5q31 0 54 14q53 33 54 94v142zM816 103
q-3 -2 -8 -1h-78h-53q-8 0 -12.5 5.5t-2.5 12.5q2 11 13 11h15h54v0h66q13 0 15 -12t-9 -16z" />
    <glyph glyph-name="fuxuan" unicode="&#xe650;" horiz-adv-x="1026" 
d="M278 492l-80 -81l256 -256l570 570l-80 81l-488 -490zM910 -14h-796v796h569v114h-569q-47 0 -80.5 -33.5t-33.5 -80.5v-797q0 -47 33.5 -80t80.5 -33h797q48 0 81.5 33.5t33.5 80.5v454h-115v-454h-1z" />
    <glyph glyph-name="mima" unicode="&#xe6bc;" 
d="M841 -128h-658q-42 0 -71.5 30t-29.5 72v384q0 43 29.5 73t71.5 30h658q42 0 71.5 -30t29.5 -73v-384q0 -42 -29.5 -72t-71.5 -30zM522.5 319q-36.5 0 -62.5 -26.5t-26 -63.5v0q0 -24 15.5 -48t37.5 -34v-97q0 -15 10.5 -25.5t25 -10.5t25 10.5t10.5 25.5v97
q22 10 37.5 34t15.5 48v0q0 37 -26 63.5t-62.5 26.5zM750 614q0 96 -67 163.5t-161 67.5t-160.5 -67.5t-66.5 -163.5v-102h-51v102q0 117 81.5 199.5t196.5 82.5t196.5 -82.5t81.5 -199.5v-102h-50v102z" />
    <glyph glyph-name="48copy9" unicode="&#xe602;" 
d="M637 591q7 0 12.5 5.5t5.5 12.5v253q0 8 -5.5 13t-12.5 5h-253q-8 0 -13 -5t-5 -13v-253q0 -7 5 -12.5t13 -5.5h253zM423 823h175v-175h-175v175zM962 186h-253q-8 0 -13 -5.5t-5 -12.5v-253q0 -8 5 -13t13 -5h253q8 0 13 5t5 13v253q0 7 -5 12.5t-13 5.5v0zM744 133h183
v-183h-183v183zM313 186h-254q-7 0 -12.5 -5.5t-5.5 -12.5v-253q0 -8 5.5 -13t12.5 -5h254q7 0 12.5 5t5.5 13v253q0 7 -5.5 12.5t-12.5 5.5v0zM95 133h183v-183h-183v183zM203 236v122h614v-122q0 -8 5.5 -13t13 -5t12.5 5t5 13v140q0 7 -5 12.5t-13 5.5h-305v147
q0 7 -5.5 12.5t-13 5.5t-12.5 -5.5t-5 -12.5v-147h-309q-7 0 -12.5 -5.5t-5.5 -12.5v-140q0 -8 5.5 -13t13 -5t12.5 5t5 13z" />
    <glyph glyph-name="sousuo-sousuo" unicode="&#xe62c;" 
d="M668 612q-80 80 -193 80t-193 -80t-80 -193t80 -193t193 -80t193 80t80 193t-80 193zM222.5 166.5q-49.5 49.5 -77 114.5t-27.5 138q0 97 47.5 179.5t130 130t179.5 47.5t179.5 -47.5t130 -130t47.5 -179.5q0 -73 -27.5 -138t-77 -114.5t-114.5 -77t-138 -27.5t-138 27.5
t-114.5 77zM890 4q-15 -14 -35 -14t-34 14l-69 69q-14 14 -14 34.5t14 34.5t34.5 14t34.5 -14l69 -69q14 -14 14 -34.5t-14 -34.5z" />
    <glyph glyph-name="-" unicode="&#xe613;" 
d="M700 539h28l-6 20q-22 77 -85 135t-151 82.5t-177 8.5q-70 -13 -126.5 -47t-91.5 -80t-51 -101.5t-10 -109.5t38 -105.5t87 -87.5q9 -7 8.5 -14.5t-14.5 -49.5l-16 -49l57 31l58 32l30 -8q55 -14 100 -14h17l-6 22q-16 62 2 123.5t61 107.5t109 75t139 29zM476 639
q11 6 26 5.5t25 -6.5q17 -12 21 -31.5t-3.5 -35.5t-24.5 -24t-37 0q-30 11 -32.5 44t25.5 48zM287 553q-17 -12 -35.5 -9.5t-29.5 15t-15 29.5t9 36q11 15 32 19.5t36 -5.5q22 -16 23 -43.5t-20 -41.5zM899 75q54 39 77.5 92.5t18 106t-35 102t-76 84.5t-112 50.5
t-134.5 2.5q-106 -19 -172 -93t-62 -168q2 -50 25 -94t60.5 -75.5t86.5 -52t103.5 -23t110.5 11.5l22 7l47 -26q12 -7 23 -12.5t17.5 -8.5t6.5 -2q1 2 -11 40q-11 35 -10.5 41t15.5 17zM645 333q-9 -25 -36 -26.5t-37 22.5q-11 27 11.5 46t47.5 3q9 -7 13.5 -20.5t0.5 -24.5
zM822 310q-26 -13 -46.5 7t-6.5 46q9 17 27.5 20.5t32.5 -9.5q15 -14 12.5 -34t-19.5 -30z" />
    <glyph glyph-name="satrhover" unicode="&#xe6bb;" horiz-adv-x="1035" 
d="M1019 499l-340 65l-167 305l-167 -305l-340 -65l236 -254l-43 -345l314 148l313 -148l-43 345z" />
    <glyph glyph-name="renyuan" unicode="&#xe644;" 
d="M973 57q0 103 -53.5 187t-140.5 121q42 30 66.5 78.5t24.5 104.5q0 78 -44.5 138t-113.5 78q-1 0 -2 -1l-1.5 0.5l-1.5 0.5q-15 0 -25 -11.5t-10 -26.5q0 -14 8.5 -24.5t20.5 -12.5q3 -1 7 -3v0q40 -14 65.5 -51.5t25.5 -84.5q0 -52 -31.5 -91.5t-77.5 -49.5h-1
q-15 -1 -26 -13t-11 -29t11 -29.5t27 -12.5l1 -1q93 -10 153 -86t60 -181q0 -16 10 -27t24 -11t24 10.5t11 25.5v0.5v0.5v0v1v0v0zM558 359q50 36 79.5 94t29.5 125q0 110 -72 187.5t-173.5 77.5t-173 -77.5t-71.5 -187.5q0 -67 29 -125t79 -94q-103 -45 -167 -145t-64 -224
q0 -12 1 -28v0q0 -15 10 -26t24 -11t24 11t10 26v2v1q-1 16 -1 25q0 88 40 162.5t109 117.5t150.5 43t150.5 -43t109.5 -117.5t40.5 -162.5q0 -10 -2 -25v-1.5v-0.5v0v-0.5v-0.5v0q1 -15 10.5 -25.5t23.5 -10.5t24 10.5t10 25.5v0q2 16 2 28q0 124 -64.5 224t-167.5 145z
M422 388q-73 0 -124.5 56t-51.5 134.5t51.5 134t124.5 55.5t124.5 -55.5t51.5 -134t-51.5 -134.5t-124.5 -56zM422 388z" />
    <glyph glyph-name="shuzi" unicode="&#xe63b;" 
d="M853 -53h-682q-27 0 -48 19.5t-21 48.5v690q0 27 19.5 47.5t49.5 20.5h689q27 0 47.5 -19.5t20.5 -48.5v-690q-5 -27 -25.5 -47.5t-49.5 -20.5zM171 725q-21 0 -21 -20v-690q0 -20 21 -20h689q21 0 21 20v690q0 20 -21 20h-689zM294 200h-28v252l-54 -41l-21 21l75 54h28
v-286zM594 200h-191v27l123 123l13 14l7 13q0 4 3.5 10.5t3.5 10.5v20q0 14 -7 21q0 6 -14 20q7 0 1 4q-3 3 -7 3t-10.5 3.5t-10.5 3.5q-13 0 -41 -14q-20 -20 -20 -41l-28 7q0 14 14 27l21 21q0 10 20 20h34q21 0 34 -7q4 0 10.5 -3t10.5 -3q13 -14 20 -27.5t7 -34
t-7 -27.5q0 -7 -13 -21q-4 -3 -4 -10t-3 -10l-21 -21l-102 -102h150v-27h7zM710 364h41q3 0 10 3t10 3q6 0 10 4.5t4 9.5q7 7 7 27q0 14 -7 21q-3 3 -6.5 10t-7 10.5t-10.5 7t-10 6.5q-7 7 -21 7q-20 0 -34 -7q-3 -3 -10 -13.5t-10 -13.5l-21 13q12 23 34 34q28 14 48.5 14
t33.5 -7q14 0 27.5 -13.5t20.5 -27.5q3 -6 3 -11t-1.5 -11.5t-1.5 -11.5q0 -27 -13 -41q-11 -20 -35 -20q28 -14 41 -28q14 -27 14 -47q0 -28 -7 -35q-7 -13 -20 -27q-4 -3 -14 -10t-14 -10q-6 -7 -33.5 -7t-54.5 14q-33 21 -41 47l27 7q14 -27 27 -34q28 -14 41.5 -14
t27.5 7q6 0 20 13.5t14 20.5q7 7 7 27.5t-7 27.5q-4 3 -7.5 10t-6.5 10q-7 7 -27 7h-41v28h-7z" />
    <glyph glyph-name="gongzuoliu" unicode="&#xe652;" horiz-adv-x="1097" 
d="M950 183h-89v153q0 6 -4 10.5t-11 4.5h-310v158h148q49 0 83.5 35t34.5 84v148q0 49 -34.5 83.5t-83.5 34.5h-325q-49 0 -83.5 -34.5t-34.5 -83.5v-148q0 -50 34.5 -84.5t83.5 -34.5h148v-158h-281v0q-6 0 -10.5 -4.5t-4.5 -10.5v0v-153h-88q-49 0 -84 -34.5t-35 -84.5
v-59q0 -49 35 -83.5t84 -34.5h206q49 0 84 34.5t35 83.5v59q0 50 -35 84.5t-84 34.5h-88v139h591v-139h-89q-49 0 -83.5 -34.5t-34.5 -83.5v-60q0 -49 34.5 -83.5t83.5 -34.5h207q49 0 83.5 34.5t34.5 83.5v60q0 49 -34.5 83.5t-83.5 34.5z" />
    <glyph glyph-name="danxuan" unicode="&#xe686;" 
d="M512 896q-139 0 -257 -68.5t-186.5 -186.5t-68.5 -257t68.5 -257t186.5 -186.5t257 -68.5t257 68.5t186.5 186.5t68.5 257t-68.5 257t-186.5 186.5t-257 68.5zM512 -92q-197 0 -336.5 139.5t-139.5 336.5t139.5 336.5t336.5 139.5t336.5 -139.5t139.5 -336.5
t-139.5 -336.5t-336.5 -139.5zM512 544q-66 0 -113 -47t-47 -113t47 -113t113 -47t113 47t47 113t-47 113t-113 47zM512 260q-51 0 -87.5 36.5t-36.5 87.5t36.5 87.5t87.5 36.5t87.5 -36.5t36.5 -87.5t-36.5 -87.5t-87.5 -36.5z" />
    <glyph glyph-name="zuixiaohua" unicode="&#xe922;" 
d="M836 832h-203v-81h203q17 0 29 -12t12 -29v-203h81v203q0 51 -35.5 86.5t-86.5 35.5zM145 710q0 17 12 29t29 12h203v81h-203q-51 0 -86.5 -35.5t-35.5 -86.5v-203h81v203v0zM145 60v203h-81v-203q0 -51 35.5 -86.5t86.5 -35.5h203v81h-203q-17 0 -29 12t-12 29zM877 60
q0 -17 -12 -29t-29 -12h-203v-81h203q51 0 86.5 35.5t35.5 86.5v203h-81v-203zM686 371q0 -11 -8 -19t-19 -8h-295q-12 0 -20 8t-8 19v27q0 12 8 20t20 8h295q11 0 19 -8t8 -20v-27z" />
    <glyph glyph-name="dingdan" unicode="&#xe653;" 
d="M794 -46h-574q-34 0 -58 24t-24 58v640q0 34 24 58t58 24h574q33 0 57.5 -24t24.5 -58v-640q0 -34 -24.5 -58t-57.5 -24zM220 696q-8 0 -14 -6t-6 -14v-640q0 -9 6 -15t14 -6h574q8 0 14 6t6 15v640q0 8 -6 14t-14 6h-574zM302 548h369v-62h-369v62zM302 386h405v-61
h-405v61z" />
  </font>
</defs>
</svg>
